<?xml version="1.0" encoding="utf-8"?>
<!-- Generator: Adobe Illustrator 22.0.1, SVG Export Plug-In . SVG Version: 6.00 Build 0)  -->
<svg version="1.1" id="Capa_1" xmlns="http://www.w3.org/2000/svg" xmlns:xlink="http://www.w3.org/1999/xlink" x="0px" y="0px"
	 viewBox="0 0 243 157" style="enable-background:new 0 0 243 157;" xml:space="preserve">
<style type="text/css">
	.st0{fill:#FFFFFF;}
	.st1{fill:#DB0809;}
	.st2{fill:#0E4689;}
	.st3{fill:#FFD102;}
	.st4{fill:#E42332;}
	.st5{fill:#005D93;}
	.st6{fill:url(#SVGID_1_);}
	.st7{fill:#FBD027;}
	.st8{fill:url(#SVGID_2_);}
	.st9{fill:url(#SVGID_3_);}
	.st10{fill:#F57E33;}
	.st11{fill-rule:evenodd;clip-rule:evenodd;fill:#192650;}
	.st12{fill:#1A2651;}
	.st13{fill-rule:evenodd;clip-rule:evenodd;fill:#003A74;}
	.st14{fill-rule:evenodd;clip-rule:evenodd;fill:#C5453E;}
	.st15{fill:#404041;}
	.st16{fill:#231F20;}
	.st17{fill:url(#SVGID_4_);}
	.st18{fill:url(#SVGID_5_);}
	.st19{fill:#004438;}
	.st20{fill:#FDD903;}
	.st21{fill:none;}
	.st22{clip-path:url(#SVGID_7_);}
	.st23{opacity:0.7;fill:none;stroke:#FFFFFF;stroke-width:0.8165;stroke-linecap:round;stroke-linejoin:bevel;}
	.st24{fill-rule:evenodd;clip-rule:evenodd;fill:#004438;}
	.st25{fill:#B0C836;}
	.st26{opacity:0.24;fill:url(#SVGID_8_);}
	.st27{opacity:0.56;fill:#172717;}
	.st28{opacity:0.28;}
	.st29{fill:url(#SVGID_9_);stroke:#114421;stroke-width:0.2179;stroke-miterlimit:3.8637;}
	.st30{fill:#172717;}
	.st31{opacity:0.31;}
	.st32{fill:#114421;stroke:#114421;stroke-width:0.648;stroke-miterlimit:3.8637;}
	.st33{fill:#114421;}
	.st34{opacity:0.58;fill:#114421;}
	.st35{opacity:0.38;}
	.st36{fill-rule:evenodd;clip-rule:evenodd;fill:#B0C836;stroke:#B0C836;stroke-width:0.6888;}
	.st37{opacity:0.8;}
	.st38{fill:#F9FAF0;}
	.st39{opacity:0.58;fill:url(#SVGID_10_);}
	.st40{opacity:0.75;}
	.st41{opacity:0.46;}
	.st42{fill:url(#SVGID_11_);}
	.st43{opacity:0.24;fill:url(#SVGID_12_);}
	.st44{opacity:0.25;}
	.st45{opacity:0.8;fill-rule:evenodd;clip-rule:evenodd;fill:#FFFFFF;stroke:#FFFFFF;stroke-width:0.7084;}
	.st46{opacity:0.59;fill:none;stroke:#FFFFFF;stroke-width:0.6888;stroke-linecap:round;}
	.st47{fill:#A0C35D;}
	.st48{clip-path:url(#SVGID_14_);fill:#C0D348;}
	.st49{fill:#1F9E56;}
	.st50{fill:#2074B0;}
	.st51{fill:#319DCC;}
	.st52{fill:#259E58;}
	.st53{fill:url(#SVGID_15_);}
	.st54{fill:#FFE701;}
	.st55{fill:#EC1B23;}
	.st56{fill:#1B6433;}
	.st57{fill:#00AE53;}
	.st58{fill:#0054A6;}
	.st59{fill:#00B5D1;}
</style>
<rect x="-0.2" class="st0" width="243" height="157"/>
<g>
	<g>
		<path class="st58" d="M150,78.5h-5.3v0c-0.3,0-0.6,0-0.9,0c-4,0-7,2.7-7.2,8.7c-0.2,6.4,2.7,9,6.8,9c4.5,0,6.6-3.4,6.6-6.9V78.5z
			 M154.9,78L154.9,78v21.8c-2.9,0-4.3-0.8-4.7-3.4c0,0-2,3.9-7.8,3.9c-7,0-11.1-5.4-10.9-13.2c0.2-8.4,6-12.8,12-12.8h1.1v0h10.1
			V78z M73.8,84.3c-1.5-0.4-2.9-1.1-2.9-2.9c0-1.9,1.2-2.8,3.7-2.8h4.9c2.2,0,4.8-0.7,4.8-4.2l-9.3,0c-5.8,0-9.1,2.9-9.1,6.9
			c0,3.7,2.5,5.9,6.9,7l4.9,1.3c1.9,0.5,2.7,1.7,2.7,3c0,1.9-1.2,3.1-4.2,3.1l-9.3,0.1v4.1h9.5c5.7,0,9-3,9-7c0-4-1.6-6-5.9-7.1
			L73.8,84.3z M115.7,99.9h4.6V84c0-3.4,1.9-5.4,5.4-5.4h1.3c4,0,4.7-2,4.7-4.2h-6.4c-5.7,0-9.6,3.2-9.6,9.8V99.9z M104.9,74.4
			c3.2,0,4.6,1.3,4.6,5v13.7c0,4.7-4.9,7.1-9.8,7.1c-5.1,0-9.5-2.3-9.5-7.1V74.4c2.1,0,4.6,0.7,4.6,4.5l0,13.2c0,2.6,2,3.9,5,3.9
			c2.9,0,5.1-1.3,5.1-3.9L104.9,74.4z"/>
		<path class="st59" d="M179.6,101.8c0,0,0.1,0,0.1,0.1c-0.5,0.6-1.2,1.4-2.3,2.1c-1,0.7-2.3,1.4-3.6,2c-1.4,0.6-2.5,1.2-3.8,1.5
			c-1.4,0.3-2.6,0.5-3.6,0.4c-0.8-0.1-1.5-0.3-2-0.7c0,0,0-0.1,0-0.1c0-0.1,0.1-0.1,0.1-0.1c3.2-0.5,6-1.3,8.7-2.2
			C175.8,104,178,102.9,179.6,101.8"/>
		<path class="st59" d="M179.3,100.4c-1.6,1-5.1,2.4-8.2,3.3c-3.6,1-6.5,1.5-8.5,1.2c-1.7-0.3-2.6-1-2.8-1.3c0,0-0.1-0.1-0.1-0.1
			c0-0.1,0.1-0.1,0.1-0.1l0.7,0c1.4-0.1,4-0.2,7.1-0.6c3.5-0.5,9.1-1.5,11.6-2.4C179.3,100.2,179.4,100.3,179.3,100.4"/>
		<path class="st59" d="M179,104.7c0.1,0,0.1,0,0.1,0.1c-0.6,1.5-1.3,2.6-2.7,3.3c-2.5,1.2-3.8,0.5-3.9,0.4c0,0-0.1-0.1-0.1-0.1
			c0-0.1,0.1-0.1,0.1-0.1C173.6,108,176.8,106.9,179,104.7C179,104.7,179,104.7,179,104.7"/>
		<path class="st59" d="M195.4,82.1C195.4,82.1,195.5,82.1,195.4,82.1c0.1,0.1,0,0.2-0.1,0.1c-0.7-0.2-2.3-0.6-4.3-1.2
			c-4.5-1.2-21.6-5.7-21.9-5.8l-0.1,0c-1-0.3-1.9-0.8-2.5-1.5c-0.2-0.2-0.4-0.4-0.5-0.6c-0.6-0.9-0.7-2.1-0.7-2.3c0,0,0-0.1,0-0.1
			c0,0,0.1,0,0.2,0l2.8,1.1C175,74.3,192.5,80.9,195.4,82.1"/>
		<path class="st59" d="M192.5,79.4c0,0.1,0,0.1-0.1,0.1c-1-0.5-3.3-1.6-5.6-2.7c-1.9-0.9-15.1-7-16-7.5l-1.6-0.8
			c-0.2-0.1-0.5-0.2-0.7-0.4c-0.6-0.4-0.9-0.6-1.3-1.1c-0.3-0.4-0.5-0.8-0.7-1.2c-0.4-0.9-0.4-2.1-0.3-2.4c0,0,0-0.1,0.1-0.1
			c0,0,0.1,0,0.2,0l1.6,1l0.9,0.5l4.8,2.9C180.6,72.1,190.1,77.9,192.5,79.4"/>
		<path class="st59" d="M197.4,83.9C197.4,83.9,197.5,83.9,197.4,83.9c0.1,0.1,0,0.2,0,0.2c-2.6-0.2-26-1.8-26-1.8
			c-0.2,0-0.4,0-0.6-0.1c-1.9-0.6-2.9-2-3.4-3.4c0-0.1,0-0.1,0-0.2c0,0,0.1-0.1,0.1-0.1C167.5,78.5,195.1,83.4,197.4,83.9"/>
		<path class="st59" d="M196.2,85.3c0,0,0.1,0.1,0.1,0.1c0,0,0,0.1-0.1,0.1c-1,0.2-18.7,2.5-18.9,2.5c-0.1,0-0.2,0-0.3,0
			c-0.1,0-0.2,0-0.3,0c-0.8-0.1-1.7-0.5-2.4-1.2c-0.4-0.4-0.7-1-0.8-1.3c0,0,0-0.1,0-0.1c0,0,0.1-0.1,0.1-0.1c0,0,5.9,0,9.7,0
			c2.8,0,5.8,0,8.2,0C193.7,85.3,195.4,85.3,196.2,85.3"/>
		<path class="st59" d="M194.9,87.1c0,0,0.1,0,0.1,0c0,0,0.1,0.1,0,0.1c-0.6,0.4-13.4,5.5-13.5,5.6c-0.7,0.2-1.5,0.3-2.1-0.6
			c-0.2-0.4-0.4-0.7-0.5-0.9c0-0.1-0.2-0.2,0.2-0.3c0,0,3.6-0.9,6.8-1.7C189.6,88.4,193.8,87.4,194.9,87.1"/>
		<path class="st59" d="M189.2,95.7c0.1,0,0.1,0,0.1,0.1c-1.2,1.4-5.8,6.3-7.9,8.5c-0.2,0.2-0.3,0.1-0.2-0.1c0,0,0.4-1,0.6-1.7
			c0.1-0.5,0.2-0.8,0.5-1C184.9,99.3,187.4,97.1,189.2,95.7L189.2,95.7z"/>
		<path class="st59" d="M193.4,89.5c0.1,0,0.1,0,0.1,0.2c-1.3,1-7,5.7-10.1,8.1l-0.1,0.1c-0.9,0.7-1.5,0.8-1.6-0.6
			c0-0.4-0.1-0.6-0.1-0.6c-0.1-0.3,0-0.3,0.2-0.4c1-0.6,2.9-1.6,4.5-2.5C189,92.1,192.2,90.3,193.4,89.5"/>
	</g>
	<g>
		<path class="st58" d="M75.7,65.2c-0.6,0.2-1.7,0.5-3.1,0.5c-1.5,0-2.8-0.4-3.7-1.3c-0.9-0.8-1.4-2.2-1.4-3.7c0-3,2.1-5.2,5.4-5.2
			c1.2,0,2.1,0.3,2.5,0.5l-0.3,1.1c-0.5-0.2-1.2-0.4-2.2-0.4c-2.4,0-4,1.5-4,4c0,2.5,1.5,4,3.8,4c0.8,0,1.4-0.1,1.7-0.3v-3h-2v-1
			h3.3V65.2z"/>
		<path class="st58" d="M77.7,55.8c0.7-0.1,1.6-0.2,2.5-0.2c1.4,0,2.3,0.3,2.9,0.8c0.5,0.4,0.8,1.1,0.8,1.9c0,1.3-0.8,2.2-1.9,2.5v0
			c0.8,0.3,1.2,1,1.5,2c0.3,1.4,0.6,2.4,0.8,2.7h-1.3c-0.2-0.3-0.4-1.1-0.7-2.4c-0.3-1.4-0.8-1.9-2-1.9H79v4.3h-1.3V55.8z M79,60.3
			h1.3c1.4,0,2.2-0.8,2.2-1.9c0-1.3-0.9-1.8-2.3-1.9c-0.6,0-1.1,0.1-1.3,0.1V60.3z"/>
		<path class="st58" d="M86.9,55.7v5.9c0,2.2,1,3.2,2.3,3.2c1.5,0,2.4-1,2.4-3.2v-5.9H93v5.8c0,3.1-1.6,4.3-3.8,4.3
			c-2,0-3.6-1.2-3.6-4.3v-5.9H86.9z"/>
		<path class="st58" d="M95.2,55.8c0.6-0.1,1.4-0.2,2.5-0.2c1.3,0,2.2,0.3,2.8,0.8c0.5,0.5,0.9,1.2,0.9,2.1c0,0.9-0.3,1.6-0.8,2.1
			c-0.7,0.7-1.8,1.1-3,1.1c-0.4,0-0.7,0-1-0.1v4h-1.3V55.8z M96.5,60.6c0.3,0.1,0.6,0.1,1.1,0.1c1.6,0,2.5-0.8,2.5-2.1
			c0-1.3-0.9-2-2.4-2c-0.6,0-1,0-1.2,0.1V60.6z"/>
		<path class="st58" d="M111.6,60.6c0,3.4-2.1,5.3-4.6,5.3c-2.6,0-4.5-2-4.5-5.1c0-3.2,2-5.2,4.6-5.2
			C109.9,55.5,111.6,57.6,111.6,60.6z M103.9,60.7c0,2.1,1.2,4,3.2,4c2,0,3.2-1.9,3.2-4.1c0-2-1-4.1-3.2-4.1
			C104.9,56.6,103.9,58.5,103.9,60.7z"/>
	</g>
</g>
</svg>
